<svg width="20" height="20" viewBox="0 0 20 20" fill="none" xmlns="http://www.w3.org/2000/svg">
<path d="M16.9613 3.555L16.9694 3.5525L16.3469 1.685C16.18 1.12063 15.1394 0 9.5 0C3.86063 0 2.82 1.12062 2.655 1.68437L2.0325 3.5525L2.04 3.555C2.01813 3.61688 2 3.68062 2 3.75C2 4.39125 2.50312 4.87812 3.27062 5.24562L4.50313 18.185C4.505 18.2013 4.51437 18.2156 4.51625 18.2319C4.695 19.945 8.99875 20 9.5 20C10.0013 20 14.305 19.945 14.4844 18.2319C14.4869 18.2156 14.4969 18.2013 14.4975 18.185L15.73 5.24562C16.4969 4.87812 17 4.39125 17 3.75C17 3.68125 16.9819 3.61688 16.9613 3.555ZM9.5 1.25C12.27 1.25 14.07 1.59187 14.8225 1.875C14.07 2.15812 12.27 2.5 9.5 2.5C6.73 2.5 4.92938 2.15812 4.17813 1.875C4.92938 1.59187 6.73 1.25 9.5 1.25ZM13.2556 18.0381C13.0056 18.2944 11.6888 18.75 9.5 18.75C7.31125 18.75 5.99375 18.2944 5.74438 18.0381L5.40688 14.4956C6.86125 14.9613 8.9125 15 9.5 15C10.0869 15 12.1381 14.9619 13.5931 14.4981L13.2556 18.0381ZM14.1987 8.14563C13.5156 8.4175 11.9106 8.75 9.5 8.75C7.08938 8.75 5.48438 8.4175 4.80187 8.14563L4.56938 5.7025C6.12063 6.1075 8.06437 6.25 9.5 6.25C10.9356 6.25 12.8794 6.1075 14.4306 5.7025L14.1987 8.14563ZM9.5 5C5.81625 5 3.54187 4.21063 3.2725 3.78312L3.56 2.92125C4.44937 3.35812 6.16813 3.75 9.5 3.75C12.8319 3.75 14.5506 3.35812 15.44 2.92125L15.7231 3.77C15.4194 4.22438 13.1525 5 9.5 5Z" fill="url(#paint0_linear_504_1140)"/>
<defs>
<linearGradient id="paint0_linear_504_1140" x1="9.5" y1="0" x2="9.5" y2="20" gradientUnits="userSpaceOnUse">
<stop stop-color="#B428F7"/>
<stop offset="1" stop-color="#830BDE"/>
</linearGradient>
</defs>
</svg>
