<svg width="34" height="34" viewBox="0 0 34 34" fill="none" xmlns="http://www.w3.org/2000/svg">
<path d="M11.0294 5.44052C10.0494 5.44052 9.23264 5.74833 8.57925 6.36396C7.92587 6.9576 7.59918 7.80408 7.59918 8.90342C7.59918 10.0027 7.87142 10.9921 8.41591 11.8716C8.98217 12.7291 9.66823 13.4656 10.4741 14.0813C11.3017 14.6749 12.1946 15.3235 13.1529 16.0271C14.133 16.7307 15.026 17.4013 15.8318 18.0389C16.6594 18.6545 17.3455 19.424 17.89 20.3475C18.4562 21.2709 18.7394 22.2493 18.7394 23.2827C18.7394 25.3274 17.9118 27.0644 16.2565 28.4935C14.6013 29.9007 12.4233 30.6042 9.72267 30.6042C7.0438 30.6042 4.9203 30.0216 3.35218 28.8563C1.78406 27.691 1 26.3718 1 24.8987C1 23.4256 1.43559 22.2823 2.30677 21.4688C3.17795 20.6333 4.29959 20.2155 5.67169 20.2155C6.06373 20.2155 6.43398 20.2595 6.78245 20.3475C6.10728 21.3589 5.7697 22.4582 5.7697 23.6455C5.7697 24.8108 6.12906 25.8221 6.84779 26.6796C7.56651 27.5151 8.51391 27.9329 9.69001 27.9329C10.8879 27.9329 11.8897 27.6251 12.6956 27.0094C13.5014 26.3718 13.9043 25.5693 13.9043 24.6019C13.9043 23.6125 13.6321 22.744 13.0876 21.9965C12.5431 21.2489 11.868 20.6113 11.0621 20.0836C10.2563 19.534 9.3742 18.9183 8.41591 18.2367C7.45761 17.5332 6.57554 16.8296 5.7697 16.126C4.96386 15.4225 4.2887 14.532 3.74421 13.4547C3.19973 12.3553 2.92748 11.157 2.92748 9.85984C2.92748 7.7711 3.67887 6.11111 5.18166 4.87986C6.68444 3.62662 8.70993 3 11.2581 3C13.8063 3 15.7338 3.58265 17.0406 4.74794C18.3691 5.89124 19.0334 7.1225 19.0334 8.4417C19.0334 9.73891 18.6196 10.8382 17.792 11.7397C16.9643 12.6192 15.8427 13.0589 14.427 13.0589C13.9479 13.0589 13.4796 13.0149 13.0223 12.927C14.0895 11.7837 14.6231 10.5854 14.6231 9.33216C14.6231 8.05693 14.2746 7.08952 13.5776 6.42992C12.8807 5.77032 12.0313 5.44052 11.0294 5.44052Z" fill="url(#paint0_linear_562_15)"/>
<path d="M15.7961 25.1955C15.2298 24.5799 14.9467 23.7004 14.9467 22.5571C14.9467 22.3812 15.012 22.1724 15.1427 21.9305C15.2952 21.6887 15.9485 20.5893 17.1028 18.6325C18.2572 16.6757 19.0194 15.3565 19.3897 14.6749C19.7599 13.9933 20.3153 12.938 21.0558 11.5088C22.2973 9.0903 23.1249 6.85866 23.5387 4.8139C23.7347 4.85787 24.0505 5.01178 24.4861 5.27562C24.9435 5.53946 25.3137 5.79231 25.5968 6.03416C25.88 6.25402 26.1304 6.56184 26.3482 6.9576C26.5878 7.35336 26.7076 7.85905 26.7076 8.47468C26.7076 9.06832 26.3047 10.0687 25.4988 11.4759C24.7148 12.861 23.5931 14.6419 22.1339 16.8186C20.6965 18.9953 19.5857 20.7872 18.8016 22.1943C21.1538 22.1284 23.4625 22.0075 25.7275 21.8316C26.0324 19.9187 26.1849 18.4566 26.1849 17.4452C26.1849 16.4338 26.1631 15.5544 26.1195 14.8068C26.5551 14.7629 26.9254 14.7409 27.2303 14.7409C29.0598 14.7409 29.9745 15.5874 29.9745 17.2803C29.9745 18.0059 29.8329 19.413 29.5498 21.5018L31.7713 21.2709C31.9238 21.8206 32 22.3922 32 22.9859C32 24.7668 31.1397 25.6572 29.4191 25.6572H29.0598C29.038 26.075 29.0271 26.9105 29.0271 28.1637C29.0271 29.395 29.0924 30.3184 29.2231 30.934C28.744 30.978 28.3193 31 27.949 31C26.7947 31 25.9562 30.7142 25.4335 30.1425C24.9108 29.5929 24.6494 28.8893 24.6494 28.0318C24.6494 27.702 24.7801 26.8775 25.0415 25.5583L15.7961 25.1955Z" fill="url(#paint1_linear_562_15)"/>
<defs>
<linearGradient id="paint0_linear_562_15" x1="16.5" y1="3" x2="16.5" y2="31" gradientUnits="userSpaceOnUse">
<stop stop-color="#B629F8"/>
<stop offset="1" stop-color="#800ADD"/>
</linearGradient>
<linearGradient id="paint1_linear_562_15" x1="16.5" y1="3" x2="16.5" y2="31" gradientUnits="userSpaceOnUse">
<stop stop-color="#B629F8"/>
<stop offset="1" stop-color="#800ADD"/>
</linearGradient>
</defs>
</svg>
