<svg width="20" height="20" viewBox="0 0 20 20" fill="none" xmlns="http://www.w3.org/2000/svg">
<path d="M15.9867 3.01551C15.8908 2.42993 15.2919 2.04123 14.7017 2.22566L7.70173 4.41316C7.28425 4.54362 7 4.93025 7 5.36764V13.4999C6.58217 13.1861 6.0628 13.0001 5.5 13.0001C4.11929 13.0001 3 14.1194 3 15.5001C3 16.8808 4.11929 18.0001 5.5 18.0001C6.88071 18.0001 8 16.8808 8 15.5001V8.36769L15 6.18018V11.4999C14.5822 11.1861 14.0628 11.0001 13.5 11.0001C12.1193 11.0001 11 12.1194 11 13.5001C11 14.8808 12.1193 16.0001 13.5 16.0001C14.8807 16.0001 16 14.8808 16 13.5001V3.18018C16 3.1802 16 3.18017 16 3.18018C16 3.12387 15.9954 3.06885 15.9867 3.01551Z" fill="url(#paint0_linear_504_1093)"/>
<defs>
<linearGradient id="paint0_linear_504_1093" x1="9.5" y1="2.17944" x2="9.5" y2="18.0001" gradientUnits="userSpaceOnUse">
<stop stop-color="#B126F6"/>
<stop offset="1" stop-color="#810BDD"/>
</linearGradient>
</defs>
</svg>
