<svg width="148" height="48" viewBox="0 0 148 48" fill="none" xmlns="http://www.w3.org/2000/svg">
<path d="M13.44 3.112C15.776 3.112 17.808 3.448 19.536 4.12C21.264 4.792 22.88 5.816 24.384 7.192L21.264 10.792C20.08 9.8 18.88 9.08 17.664 8.632C16.48 8.184 15.2 7.96 13.824 7.96C12.288 7.96 11.04 8.312 10.08 9.016C9.152 9.688 8.688 10.648 8.688 11.896C8.688 12.728 8.864 13.416 9.216 13.96C9.6 14.504 10.272 15.016 11.232 15.496C12.192 15.976 13.616 16.504 15.504 17.08C18.768 18.104 21.216 19.384 22.848 20.92C24.512 22.424 25.344 24.632 25.344 27.544C25.344 29.528 24.832 31.288 23.808 32.824C22.816 34.36 21.376 35.56 19.488 36.424C17.6 37.288 15.36 37.72 12.768 37.72C10.24 37.72 7.968 37.32 5.952 36.52C3.968 35.688 2.256 34.568 0.816 33.16L4.08 29.512C5.36 30.6 6.688 31.432 8.064 32.008C9.44 32.552 10.96 32.824 12.624 32.824C14.448 32.824 15.92 32.392 17.04 31.528C18.16 30.664 18.72 29.448 18.72 27.88C18.72 26.92 18.528 26.136 18.144 25.528C17.76 24.888 17.104 24.328 16.176 23.848C15.248 23.336 13.904 22.808 12.144 22.264C8.624 21.176 6.08 19.864 4.512 18.328C2.944 16.792 2.16 14.776 2.16 12.28C2.16 10.456 2.64 8.856 3.6 7.48C4.56 6.104 5.888 5.032 7.584 4.264C9.312 3.496 11.264 3.112 13.44 3.112ZM41.1634 10.888C44.9074 10.888 47.8194 12.088 49.8994 14.488C52.0114 16.856 53.0674 20.12 53.0674 24.28C53.0674 26.936 52.5874 29.288 51.6274 31.336C50.6674 33.352 49.2914 34.92 47.4994 36.04C45.7074 37.16 43.5794 37.72 41.1154 37.72C37.3714 37.72 34.4434 36.536 32.3314 34.168C30.2194 31.768 29.1634 28.472 29.1634 24.28C29.1634 21.624 29.6434 19.288 30.6034 17.272C31.5634 15.256 32.9394 13.688 34.7314 12.568C36.5554 11.448 38.6994 10.888 41.1634 10.888ZM41.1634 15.544C37.4834 15.544 35.6434 18.456 35.6434 24.28C35.6434 27.288 36.0914 29.512 36.9874 30.952C37.9154 32.36 39.2914 33.064 41.1154 33.064C42.9394 33.064 44.2994 32.344 45.1954 30.904C46.1234 29.464 46.5874 27.256 46.5874 24.28C46.5874 21.304 46.1234 19.112 45.1954 17.704C44.2994 16.264 42.9554 15.544 41.1634 15.544ZM65.0666 37.72C63.1146 37.72 61.5786 37.16 60.4586 36.04C59.3706 34.888 58.8266 33.272 58.8266 31.192V1.432L64.9706 0.759997V31C64.9706 32.184 65.4506 32.776 66.4106 32.776C66.8906 32.776 67.3706 32.696 67.8506 32.536L69.1466 36.856C67.8666 37.432 66.5066 37.72 65.0666 37.72ZM85.2821 37.096C84.2581 40.232 82.7061 42.664 80.6261 44.392C78.5461 46.152 75.6981 47.176 72.0821 47.464L71.4581 43C73.1221 42.744 74.4501 42.376 75.4421 41.896C76.4661 41.448 77.2821 40.84 77.8901 40.072C78.4981 39.304 79.0581 38.28 79.5701 37H77.4581L69.3941 11.608H75.9221L81.4421 32.92L87.2021 11.608H93.5381L85.2821 37.096ZM112.059 35.8C111.163 36.44 110.155 36.92 109.035 37.24C107.947 37.56 106.827 37.72 105.675 37.72C103.179 37.688 101.275 36.984 99.9634 35.608C98.6834 34.2 98.0434 32.136 98.0434 29.416V16.024H94.0594V11.608H98.0434V5.992L104.187 5.272V11.608H110.091L109.467 16.024H104.187V29.272C104.187 30.52 104.395 31.416 104.811 31.96C105.259 32.504 105.947 32.776 106.875 32.776C107.803 32.776 108.811 32.472 109.899 31.864L112.059 35.8ZM136.322 24.904V29.608H132.434V37H126.434V29.608H112.706V25.384L122.114 4.072L127.346 6.04L119.09 24.904H126.482L127.106 16.792H132.434V24.904H136.322ZM143.465 29.944C144.553 29.944 145.481 30.328 146.249 31.096C147.017 31.832 147.401 32.744 147.401 33.832C147.401 34.888 147.017 35.8 146.249 36.568C145.481 37.336 144.553 37.72 143.465 37.72C142.409 37.72 141.497 37.336 140.729 36.568C139.993 35.8 139.625 34.888 139.625 33.832C139.625 32.744 139.993 31.832 140.729 31.096C141.465 30.328 142.377 29.944 143.465 29.944Z" fill="#0E0E0E"/>
</svg>
